<?xml version="1.0" encoding="UTF-8" standalone="no"?>
<!-- Created with Inkscape (http://www.inkscape.org/) -->

<svg
   width="600mm"
   height="600mm"
   viewBox="0 0 600 600"
   version="1.1"
   id="svg5"
   inkscape:version="1.1.2 (b8e25be833, 2022-02-05)"
   sodipodi:docname="MemoWordslogo.svg"
   xmlns:inkscape="http://www.inkscape.org/namespaces/inkscape"
   xmlns:sodipodi="http://sodipodi.sourceforge.net/DTD/sodipodi-0.dtd"
   xmlns="http://www.w3.org/2000/svg"
   xmlns:svg="http://www.w3.org/2000/svg">
  <sodipodi:namedview
     id="namedview7"
     pagecolor="#ffffff"
     bordercolor="#666666"
     borderopacity="1.0"
     inkscape:pageshadow="2"
     inkscape:pageopacity="0.0"
     inkscape:pagecheckerboard="0"
     inkscape:document-units="mm"
     showgrid="false"
     inkscape:zoom="0.19442866"
     inkscape:cx="216.01753"
     inkscape:cy="717.48681"
     inkscape:window-width="2560"
     inkscape:window-height="1361"
     inkscape:window-x="-9"
     inkscape:window-y="-9"
     inkscape:window-maximized="1"
     inkscape:current-layer="layer1"
     fit-margin-top="0"
     fit-margin-left="0"
     fit-margin-right="0"
     fit-margin-bottom="0" />
  <defs
     id="defs2" />
  <g
     inkscape:label="Vrstva 1"
     inkscape:groupmode="layer"
     id="layer1"
     transform="translate(181.23966,141.77576)">
    <rect
       style="fill:#393a3b;fill-opacity:1;stroke:#000000;stroke-width:0.50734"
       id="rect858"
       width="599.49268"
       height="599.49268"
       x="-180.98599"
       y="-141.52209"
       ry="110.22681" />
    <path
       id="path1664"
       style="fill:#ffffff;fill-opacity:1;stroke:#000000;stroke-width:0.498803"
       d="m 118.73222,-74.165905 a 224.19647,228.27893 0 0 0 -224.19667,228.279085 224.19647,228.27893 0 0 0 19.927487,93.57775 l 42.01189,-36.99516 A 173.22398,173.22397 0 0 1 -52.110593,157.85558 173.22398,173.22397 0 0 1 121.11347,-15.368465 173.22398,173.22397 0 0 1 294.3375,157.85558 173.22398,173.22397 0 0 1 121.11347,331.07964 173.22398,173.22397 0 0 1 111.48046,330.65951 L 69.638037,376.7368 A 224.19647,228.27893 0 0 0 118.73222,382.39227 224.19647,228.27893 0 0 0 342.92833,154.11318 224.19647,228.27893 0 0 0 118.73222,-74.165905 Z m 8.25685,83.5571697 C 90.434757,9.6531647 44.199907,21.139755 -0.32978286,62.530655 c 0,0 -9.15383974,5.81324 -3.96924974,12.87002 2.16506,2.94688 6.7372697,0.5507 9.8629497,-0.48111 C 67.625667,54.432495 132.91118,91.66893 132.91118,91.66893 l 62.09544,56.20122 59.65941,-63.267975 c 0,0 -53.38485,-59.09286 -63.2287,-63.36925 -10.5189,-4.56966 -34.1604,-12.0586603 -64.44826,-11.8416603 z M 260.92044,109.13969 c -53.16424,54.12648 -51.23971,50.51799 -53.16421,54.12642 -1.9245,3.60843 3.12732,11.30647 -0.4811,20.92895 -3.60844,9.62248 -35.01255,39.86136 -36.11459,40.83523 -2.86335,2.53033 -3.91853,7.02369 -0.39068,11.45718 10.46128,9.53951 21.03779,18.9505 31.45337,28.53625 2.90756,2.68041 3.48806,6.01417 10.34407,4.08967 15.37079,-18.60414 35.7055,-38.40131 53.40501,-56.89265 0,0 -20.61287,-11.41841 -17.56119,-47.2705 2.9128,-34.22091 15.03521,-34.70122 12.50932,-55.81055 z m -131.34703,5.05189 c 0,0 8e-5,0.48085 -123.1676729,127.97875 L 62.697377,298.462 183.45951,165.67164 Z m -139.949603,143.85479 -5.44772,5.62963 -34.36586,40.2947 c -3.57478,10.48687 -5.92801,28.40567 10.55593,44.40039 24.08547,23.37067 50.35041,6.63422 50.35041,6.63422 l 38.19872,-39.73711 c 0.0523,-0.0524 0.23315,-1.66553 -59.29148,-57.22183 z" />
  </g>
</svg>
